<?xml version="1.0" encoding="iso-8859-1"?>
<!-- Generator: Adobe Illustrator 19.0.0, SVG Export Plug-In . SVG Version: 6.00 Build 0)  -->
<svg version="1.1" id="Layer_1" xmlns="http://www.w3.org/2000/svg" xmlns:xlink="http://www.w3.org/1999/xlink" x="0px" y="0px"
	 viewBox="0 0 473.999 473.999" style="enable-background:new 0 0 473.999 473.999;" xml:space="preserve">
<circle style="fill:#E8E8DF;" cx="237.011" cy="236.967" r="236.967"/>
<path style="fill:#89932C;" d="M470.663,197.424C458.465,124.908,413.68,64.441,352.715,30.245
	c-25.433,7.199-48.127,40.763-48.127,40.763l-44.164,50.364l-8.146-7.147c0,0-30.035-30.709-53.5-30.507
	c-23.446,0.206-46.466,34.293-46.466,34.293l-23.465,26.754c-4.284-4.198-26.698-25.283-44.722-25.13
	c-19.985,0.18-39.629,29.238-39.629,29.238L3.692,195.411c-0.075,0.382-0.127,0.767-0.191,1.149L470.663,197.424z"/>
<path style="fill:#AA865B;" d="M473.462,221.495c-0.535-8.153-1.478-16.183-2.799-24.075L3.505,196.556
	c-3.121,18.099-4.236,36.834-2.978,55.97c2.664,40.617,15.424,78.17,35.659,110.383c44.823,71.348,126.345,116.478,216.324,110.574
	c89.971-5.905,164.904-61.294,200.017-137.885C468.385,301.016,476.13,262.12,473.462,221.495z"/>
<path style="fill:#B1C635;" d="M375.285,211.201l-244.466,0.079c43.637-51.775,86.042-64.265,125.949-64.276
	C299.17,146.989,345.336,161.945,375.285,211.201z"/>
<g>
	<path style="fill:#A2DADB;" d="M249.303,210.487l-98.533,0.03c34.136-40.497,67.3-50.267,98.521-50.275L249.303,210.487z"/>
	<path style="fill:#A2DADB;" d="M261.161,210.479l98.536-0.03c-34.159-40.479-67.337-50.222-98.555-50.215L261.161,210.479z"/>
</g>
<path style="fill:#B1C635;" d="M366.574,286.662c0,0-310.408,0.101-321.169,0.108c-7.487,0-8.116-14.975-8.116-14.975
	c-0.022-67.348,102.263-61.141,102.263-61.141l235.415-0.075c0,0,17.571,10.559,36.486,13.71
	c14.032,2.327,18.716,14.335,18.72,27.431C430.177,268.713,419.58,278.228,366.574,286.662z"/>
<path style="fill:#A6B232;" d="M219.518,281.102c-104.272-1.841-181.522-3.843-181.522-3.843s-0.109,1.175-0.464,4.445
	c-0.442,4.116,1.605,6.941,4.636,6.941l324.095-0.101l0.621-7.491C335.083,279.815,323.791,282.935,219.518,281.102z"/>
<g>
	<circle style="fill:#202121;" cx="106.202" cy="275.845" r="38.353"/>
	<circle style="fill:#202121;" cx="330.705" cy="275.77" r="38.353"/>
</g>
<g>
	<circle style="fill:#818282;" cx="106.206" cy="275.845" r="18.709"/>
	<circle style="fill:#818282;" cx="330.705" cy="275.77" r="18.709"/>
</g>
<g>
</g>
<g>
</g>
<g>
</g>
<g>
</g>
<g>
</g>
<g>
</g>
<g>
</g>
<g>
</g>
<g>
</g>
<g>
</g>
<g>
</g>
<g>
</g>
<g>
</g>
<g>
</g>
<g>
</g>
</svg>
